<?xml version="1.0" encoding="utf-8"?>
<!-- Generator: Adobe Illustrator 23.1.0, SVG Export Plug-In . SVG Version: 6.00 Build 0)  -->
<svg version="1.1" id="Icons" xmlns="http://www.w3.org/2000/svg" xmlns:xlink="http://www.w3.org/1999/xlink" x="0px" y="0px"
	 viewBox="0 0 215 215" style="enable-background:new 0 0 215 215;" xml:space="preserve">
<style type="text/css">
	.st0{display:none;fill:#FFFFFF;}
	.st1{fill:#009999;}
</style>
<g id="Facebook">
	<path id="Background" class="st0" d="M0,103.2c0-48.65,0-73,15.11-88.09S54.55,0,103.2,0h8.6c48.65,0,73,0,88.09,15.11
		S215,54.55,215,103.2v8.6c0,48.65,0,73-15.11,88.09S160.45,215,111.8,215h-8.6c-48.65,0-73,0-88.09-15.11S0,160.45,0,111.8V103.2z"
		/>
	<path id="Facebook-2" class="st1" d="M118.32,118.55h22.43l4.22-27.99h-26.65v-18.1c0-7.66,3.72-15.11,15.66-15.11h12.12v-23.8
		c-7.11-1.16-14.29-1.79-21.49-1.89c-21.91,0-36.3,13.39-36.3,37.63v21.27H63.89v27.95H88.3v67.57h29.98L118.32,118.55z"/>
</g>
</svg>
