<?xml version="1.0" encoding="utf-8"?>
<!-- Generator: Adobe Illustrator 23.1.0, SVG Export Plug-In . SVG Version: 6.00 Build 0)  -->
<svg version="1.1" id="Icons" xmlns="http://www.w3.org/2000/svg" xmlns:xlink="http://www.w3.org/1999/xlink" x="0px" y="0px"
	 viewBox="0 0 215 215" style="enable-background:new 0 0 215 215;" xml:space="preserve">
<style type="text/css">
	.st0{display:none;fill:#1877F2;}
	.st1{fill:#009999;}
	.st2{fill:#FFFFFF;}
</style>
<g id="Facebook">
	<path id="Background" class="st0" d="M0,103.2c0-48.65,0-73,15.11-88.09S54.55,0,103.2,0h8.6c48.65,0,73,0,88.09,15.11
		S215,54.55,215,103.2v8.6c0,48.65,0,73-15.11,88.09S160.45,215,111.8,215h-8.6c-48.65,0-73,0-88.09-15.11S0,160.45,0,111.8V103.2z"
		/>
	<path id="Background_1_" class="st1" d="M0,103.2c0-48.65,0-73,15.11-88.09S54.55,0,103.2,0h8.6c48.65,0,73,0,88.09,15.11
		S215,54.55,215,103.2v8.6c0,48.65,0,73-15.11,88.09S160.45,215,111.8,215h-8.6c-48.65,0-73,0-88.09-15.11S0,160.45,0,111.8V103.2z"
		/>
	<path id="Facebook-2" class="st2" d="M116.55,117.27H136L139.66,93h-23.11V77.3c0-6.64,3.23-13.1,13.58-13.1h10.51V43.56
		c-6.16-1-12.39-1.55-18.64-1.64c-19,0-31.48,11.61-31.48,32.63V93H69.35v24.24h21.17v58.6h26L116.55,117.27z"/>
</g>
</svg>
