<?xml version="1.0" encoding="utf-8"?>
<!-- Generator: Adobe Illustrator 23.1.0, SVG Export Plug-In . SVG Version: 6.00 Build 0)  -->
<svg version="1.1" id="Icons" xmlns="http://www.w3.org/2000/svg" xmlns:xlink="http://www.w3.org/1999/xlink" x="0px" y="0px"
	 viewBox="0 0 215 215" style="enable-background:new 0 0 215 215;" xml:space="preserve">
<style type="text/css">
	.st0{display:none;fill:#1D66C2;}
	.st1{fill:#009999;}
	.st2{fill:#FFFFFF;}
</style>
<g id="LinkedIn">
	<path id="Background" class="st0" d="M0,103.2c0-48.65,0-73,15.11-88.09S54.55,0,103.2,0h8.6c48.65,0,73,0,88.09,15.11
		S215,54.55,215,103.2v8.6c0,48.65,0,73-15.11,88.09S160.45,215,111.8,215h-8.6c-48.65,0-73,0-88.09-15.11S0,160.45,0,111.8V103.2z"
		/>
	<path id="Background_1_" class="st1" d="M0,103.2c0-48.65,0-73,15.11-88.09S54.55,0,103.2,0h8.6c48.65,0,73,0,88.09,15.11
		S215,54.55,215,103.2v8.6c0,48.65,0,73-15.11,88.09S160.45,215,111.8,215h-8.6c-48.65,0-73,0-88.09-15.11S0,160.45,0,111.8V103.2z"
		/>
	<g id="LinkedIn-2">
		<rect id="LinkedIn-3" x="57.82" y="83.44" class="st2" width="22.81" height="73.58"/>
		<path id="LinkedIn-4" class="st2" d="M138.76,82c-8.83-0.74-16.92,4.41-21.34,11.77v-10.3H95.35V157h22.81v-36.77
			c0-9.57,2.2-19.13,14-19.13s11.77,11,11.77,19.86V157h22.81L166,117.26C166,97.42,162.3,82,138.76,82z"/>
		<circle id="LinkedIn-5" class="st2" cx="68.86" cy="59.89" r="13.24"/>
	</g>
</g>
</svg>
