<?xml version="1.0" encoding="utf-8"?>
<!-- Generator: Adobe Illustrator 23.1.0, SVG Export Plug-In . SVG Version: 6.00 Build 0)  -->
<svg version="1.1" id="Icons" xmlns="http://www.w3.org/2000/svg" xmlns:xlink="http://www.w3.org/1999/xlink" x="0px" y="0px"
	 viewBox="0 0 215 215" style="enable-background:new 0 0 215 215;" xml:space="preserve">
<style type="text/css">
	.st0{display:none;fill:#FFFFFF;}
	.st1{fill-rule:evenodd;clip-rule:evenodd;fill:#009999;}
</style>
<g id="Telegram">
	<path id="Background" class="st0" d="M0,103.2c0-48.65,0-73,15.11-88.09S54.55,0,103.2,0h8.6c48.65,0,73,0,88.09,15.11
		S215,54.55,215,103.2v8.6c0,48.65,0,73-15.11,88.09S160.45,215,111.8,215h-8.6c-48.65,0-73,0-88.09-15.11S0,160.45,0,111.8V103.2z"
		/>
	<path id="Telegram-2" class="st1" d="M30.51,102.09c47.94-20.89,79.9-34.66,95.9-41.31c45.68-19,55.16-22.31,61.35-22.41
		c2.27-0.05,4.5,0.61,6.37,1.91c1.31,1.14,2.14,2.73,2.34,4.45c0.33,2.14,0.43,4.32,0.28,6.48c-2.48,26-13.19,89.11-18.64,118.22
		c-2.3,12.33-6.83,16.47-11.24,16.87c-9.55,0.88-16.8-6.32-26.05-12.38c-14.47-9.48-22.66-15.34-36.7-24.65
		c-16.24-10.69-5.72-16.58,3.54-26.19c2.43-2.52,44.49-40.8,45.32-44.27c0.21-1.03-0.07-2.11-0.77-2.9
		c-1.01-0.65-2.28-0.78-3.4-0.33c-1.45,0.33-24.57,15.62-69.37,45.84c-6.57,4.52-12.52,6.72-17.83,6.6
		c-5.88-0.13-17.18-3.32-25.57-6.05c-10.29-3.35-18.47-5.12-17.76-10.81C18.64,108.19,22.72,105.17,30.51,102.09z"/>
</g>
</svg>
