<?xml version="1.0" encoding="utf-8"?>
<!-- Generator: Adobe Illustrator 23.1.0, SVG Export Plug-In . SVG Version: 6.00 Build 0)  -->
<svg version="1.1" id="Icons" xmlns="http://www.w3.org/2000/svg" xmlns:xlink="http://www.w3.org/1999/xlink" x="0px" y="0px"
	 viewBox="0 0 215 215" style="enable-background:new 0 0 215 215;" xml:space="preserve">
<style type="text/css">
	.st0{display:none;fill:url(#Background_2_);}
	.st1{fill:#009999;}
	.st2{fill-rule:evenodd;clip-rule:evenodd;fill:#FFFFFF;}
</style>
<g id="Telegram">
	
		<linearGradient id="Background_2_" gradientUnits="userSpaceOnUse" x1="554" y1="108.3898" x2="769" y2="108.3898" gradientTransform="matrix(1 0 0 -1 -554 215.8898)">
		<stop  offset="0" style="stop-color:#2AABEE"/>
		<stop  offset="1" style="stop-color:#229ED9"/>
	</linearGradient>
	<path id="Background" class="st0" d="M0,103.2c0-48.65,0-73,15.11-88.09S54.55,0,103.2,0h8.6c48.65,0,73,0,88.09,15.11
		S215,54.55,215,103.2v8.6c0,48.65,0,73-15.11,88.09S160.45,215,111.8,215h-8.6c-48.65,0-73,0-88.09-15.11S0,160.45,0,111.8V103.2z"
		/>
	<path id="Background_1_" class="st1" d="M0,103.2c0-48.65,0-73,15.11-88.09S54.55,0,103.2,0h8.6c48.65,0,73,0,88.09,15.11
		S215,54.55,215,103.2v8.6c0,48.65,0,73-15.11,88.09S160.45,215,111.8,215h-8.6c-48.65,0-73,0-88.09-15.11S0,160.45,0,111.8V103.2z"
		/>
	<path id="Telegram-2" class="st2" d="M44.29,105c34.38-14.98,57.31-24.86,68.78-29.63c32.76-13.63,39.56-16,44-16.07
		c1.63-0.04,3.23,0.44,4.57,1.37c0.94,0.82,1.54,1.95,1.68,3.19c0.24,1.54,0.31,3.1,0.2,4.65c-1.78,18.65-9.46,63.91-13.37,84.79
		c-1.65,8.84-4.9,11.81-8.06,12.1c-6.85,0.63-12.05-4.53-18.68-8.88c-10.38-6.8-16.25-11-26.32-17.68
		c-11.65-7.67-4.1-11.89,2.54-18.78c1.74-1.81,31.91-29.26,32.5-31.75c0.15-0.74-0.05-1.51-0.55-2.08
		c-0.73-0.47-1.64-0.56-2.44-0.24c-1.04,0.24-17.62,11.2-49.75,32.88c-4.71,3.24-8.98,4.82-12.79,4.73
		c-4.22-0.09-12.32-2.38-18.34-4.34c-7.38-2.4-13.25-3.67-12.74-7.75C35.78,109.38,38.7,107.21,44.29,105z"/>
</g>
</svg>
