<?xml version="1.0" encoding="utf-8"?>
<!-- Generator: Adobe Illustrator 23.1.0, SVG Export Plug-In . SVG Version: 6.00 Build 0)  -->
<svg version="1.1" id="Icons" xmlns="http://www.w3.org/2000/svg" xmlns:xlink="http://www.w3.org/1999/xlink" x="0px" y="0px"
	 viewBox="0 0 215 215" style="enable-background:new 0 0 215 215;" xml:space="preserve">
<style type="text/css">
	.st0{display:none;fill:#FFFFFF;}
	.st1{fill:#009999;}
</style>
<g id="Viber">
	<path id="Background" class="st0" d="M13.96,103.76c0-42.33,0-63.52,13.15-76.65s34.32-13.15,76.65-13.15h7.48
		c42.33,0,63.52,0,76.65,13.15c13.13,13.15,13.15,34.32,13.15,76.65v7.48c0,42.33,0,63.52-13.15,76.65
		c-13.15,13.13-34.32,13.15-76.65,13.15h-7.48c-42.33,0-63.52,0-76.65-13.15c-13.13-13.15-13.15-34.32-13.15-76.65V103.76z"/>
	<g id="Viber-2">
		<path class="st1" d="M172.82,39.5c-4.36-4.07-22.26-17.02-61.99-17.19c0,0-46.86-2.82-69.7,18.13
			C28.42,53.14,23.96,71.75,23.48,94.82c-0.48,23.07-1.08,66.35,40.6,77.99l0,0v17.89c0,0-0.28,7.27,4.5,8.73
			c5.82,1.79,9.15-3.71,14.66-9.64c3.03-3.26,7.27-8.04,10.34-11.64c28.5,2.4,50.42-3.08,52.91-3.9
			c5.82-1.86,38.32-6.04,43.64-49.26C195.59,80.39,187.47,52.2,172.82,39.5z M177.65,121.75c-4.47,36.09-30.88,38.36-35.76,39.92
			c-14.89,3.64-30.25,4.95-45.53,3.87c0,0-18.04,21.82-23.67,27.42c-0.64,0.76-1.61,1.16-2.6,1.06c-0.97-0.23-1.24-1.38-1.24-3.05
			c0-2.4,0.16-29.73,0.16-29.73l0,0c-35.25-9.79-33.2-46.55-32.79-65.86c0.41-19.3,4.02-35.04,14.77-45.66
			c19.32-17.46,59.12-14.88,59.12-14.88c33.6,0.15,49.71,10.27,53.45,13.66c12.39,10.6,18.71,36.02,14.1,73.23V121.75z"/>
		<path id="Viber-3" class="st1" d="M127.18,96.06c-1.2,0-2.19-0.94-2.24-2.14c-0.38-7.64-3.97-11.36-11.3-11.75
			c-1.24-0.06-2.19-1.12-2.12-2.36c0.06-1.24,1.12-2.19,2.36-2.12l0,0c9.69,0.51,15.07,6.04,15.57,16c0.06,1.24-0.9,2.29-2.14,2.36
			L127.18,96.06z"/>
		<path id="Viber-4" class="st1" d="M138.71,99.93L138.71,99.93c-1.24-0.03-2.23-1.06-2.21-2.3c0.42-6.98-2-13.84-6.71-19.01
			c-4.67-5.11-11.07-7.88-19.57-8.51c-1.24-0.09-2.17-1.16-2.08-2.4c0.09-1.24,1.16-2.17,2.4-2.08l0,0
			c9.57,0.7,17.15,4.04,22.56,9.95c5.47,6.05,8.3,14.02,7.88,22.16C140.97,98.97,139.94,99.95,138.71,99.93
			C138.71,99.93,138.71,99.93,138.71,99.93z"/>
		<path id="Viber-5" class="st1" d="M150.52,104.54c-1.23,0.01-2.23-0.98-2.24-2.21c0,0,0-0.01,0-0.01
			c-0.1-13.56-4.18-24.35-12.09-32.08c-7.97-7.74-18.7-11.98-29.81-11.78c-1.24,0.1-2.33-0.83-2.43-2.07
			c-0.1-1.24,0.83-2.33,2.07-2.43c0.12-0.01,0.24-0.01,0.36,0l0,0c13.09,0.1,24.12,4.5,32.91,13.09
			c8.79,8.6,13.34,20.45,13.46,35.25c0.01,1.25-0.99,2.26-2.24,2.27c0,0,0,0,0,0L150.52,104.54z"/>
		<path id="Viber-6" class="st1" d="M114.21,123.9c1.81,0.14,3.59-0.52,4.86-1.82l3.32-4.18c2.36-2.6,6.25-3.14,9.24-1.28
			c2.91,1.61,5.59,3.37,8.23,5.25c2.65,1.88,7.65,6.14,7.67,6.14c2.48,2.03,3.06,5.59,1.34,8.29l0,0c-1.83,3.18-4.16,6.05-6.9,8.5
			l0,0c-1.96,1.79-4.39,2.97-7.01,3.39c-0.34,0.04-0.68,0.04-1.02,0c-0.99,0-1.97-0.16-2.91-0.47l-0.07-0.1
			c-3.53-1-9.44-3.49-19.26-8.92c-5.69-3.1-11.11-6.68-16.19-10.69c-2.55-2.01-4.98-4.17-7.27-6.46l-0.25-0.25l-0.25-0.25l0,0
			l-0.25-0.23c-0.09-0.09-0.16-0.17-0.25-0.25c-2.28-2.3-4.44-4.73-6.44-7.27c-4.02-5.08-7.59-10.49-10.69-16.18
			c-5.43-9.83-7.93-15.73-8.92-19.26l-0.12-0.09c-0.3-0.94-0.46-1.92-0.45-2.91c-0.04-0.34-0.04-0.69,0-1.03
			c0.44-2.61,1.63-5.05,3.4-7.01l0,0c2.45-2.74,5.31-5.07,8.5-6.9l0,0c2.7-1.71,6.26-1.15,8.29,1.32c0,0,4.36,5.15,6.12,7.67
			c1.89,2.66,3.65,5.41,5.27,8.25c1.86,2.98,1.32,6.87-1.28,9.24l-4.18,3.32c-1.32,1.27-2.01,3.07-1.86,4.9
			C84.88,94.63,91.12,118.01,114.21,123.9z"/>
	</g>
</g>
</svg>
