<?xml version="1.0" encoding="utf-8"?>
<!-- Generator: Adobe Illustrator 23.1.0, SVG Export Plug-In . SVG Version: 6.00 Build 0)  -->
<svg version="1.1" id="Icons" xmlns="http://www.w3.org/2000/svg" xmlns:xlink="http://www.w3.org/1999/xlink" x="0px" y="0px"
	 viewBox="0 0 215 215" style="enable-background:new 0 0 215 215;" xml:space="preserve">
<style type="text/css">
	.st0{display:none;fill:#7360F2;}
	.st1{fill:#009999;}
	.st2{fill:#FFFFFF;}
</style>
<g id="Viber">
	<path id="Background" class="st0" d="M0,103.2c0-48.65,0-73,15.11-88.09S54.55,0,103.2,0h8.6c48.65,0,73,0,88.09,15.11
		S215,54.55,215,103.2v8.6c0,48.65,0,73-15.11,88.09S160.45,215,111.8,215h-8.6c-48.65,0-73,0-88.09-15.11S0,160.45,0,111.8V103.2z"
		/>
	<path id="Background_1_" class="st1" d="M0,103.2c0-48.65,0-73,15.11-88.09S54.55,0,103.2,0h8.6c48.65,0,73,0,88.09,15.11
		S215,54.55,215,103.2v8.6c0,48.65,0,73-15.11,88.09S160.45,215,111.8,215h-8.6c-48.65,0-73,0-88.09-15.11S0,160.45,0,111.8V103.2z"
		/>
	<g id="Viber-2">
		<path class="st2" d="M152.45,62.36c-3-2.8-15.3-11.7-42.61-11.82c0,0-32.21-1.94-47.91,12.46c-8.74,8.74-11.81,21.53-12.14,37.39
			S49.05,146,77.7,154l0,0v12.3c0,0-0.19,5,3.09,6c4,1.23,6.29-2.55,10.08-6.63c2.08-2.24,5-5.53,7.11-8
			c19.59,1.65,34.66-2.12,36.37-2.68c4-1.28,26.34-4.15,30-33.86C168.1,90.47,162.52,71.09,152.45,62.36z M155.77,118.9
			c-3.07,24.81-21.23,26.37-24.58,27.44c-10.23,2.5-20.79,3.4-31.3,2.66c0,0-12.4,15-16.27,18.85c-0.44,0.52-1.11,0.8-1.79,0.73
			c-0.67-0.16-0.85-0.95-0.85-2.1c0-1.65,0.11-20.44,0.11-20.44l0,0c-24.23-6.73-22.82-32-22.54-45.27s2.76-24.09,10.15-31.39
			c13.28-12,40.64-10.23,40.64-10.23c23.1,0.1,34.17,7.06,36.74,9.39c8.52,7.29,12.86,24.76,9.69,50.34V118.9z"/>
		<path id="Viber-3" class="st2" d="M121.08,101.24c-0.82,0-1.5-0.65-1.54-1.47c-0.26-5.25-2.73-7.81-7.77-8.08
			c-0.85-0.04-1.5-0.77-1.46-1.62s0.77-1.5,1.62-1.46l0,0c6.66,0.35,10.36,4.15,10.7,11c0.04,0.85-0.62,1.58-1.47,1.62
			L121.08,101.24z"/>
		<path id="Viber-4" class="st2" d="M129,103.9L129,103.9c-0.85-0.02-1.53-0.73-1.52-1.58c0.29-4.8-1.37-9.51-4.61-13.07
			c-3.21-3.51-7.61-5.42-13.45-5.85c-0.85-0.06-1.49-0.8-1.43-1.65s0.8-1.49,1.65-1.43l0,0c6.58,0.48,11.79,2.78,15.51,6.84
			c3.76,4.16,5.71,9.64,5.42,15.23C130.55,103.24,129.85,103.92,129,103.9C129,103.9,129,103.9,129,103.9z"/>
		<path id="Viber-5" class="st2" d="M137.12,107.07c-0.84,0.01-1.53-0.67-1.54-1.52c0,0,0-0.01,0-0.01
			c-0.07-9.32-2.87-16.74-8.31-22.05c-5.48-5.32-12.85-8.24-20.49-8.1c-0.85,0.07-1.6-0.57-1.67-1.42c-0.07-0.85,0.57-1.6,1.42-1.67
			c0.08-0.01,0.17-0.01,0.25,0l0,0c9,0.07,16.58,3.09,22.62,9c6.04,5.91,9.17,14.06,9.25,24.23c0.01,0.86-0.68,1.55-1.54,1.56
			c0,0,0,0,0,0L137.12,107.07z"/>
		<path id="Viber-6" class="st2" d="M112.16,120.38c1.24,0.1,2.47-0.36,3.34-1.25l2.28-2.87c1.63-1.79,4.3-2.16,6.35-0.88
			c2,1.11,3.84,2.32,5.66,3.61c1.82,1.29,5.26,4.22,5.27,4.22c1.71,1.39,2.1,3.84,0.92,5.7l0,0c-1.26,2.19-2.86,4.16-4.74,5.84l0,0
			c-1.35,1.23-3.02,2.04-4.82,2.33c-0.23,0.02-0.47,0.02-0.7,0c-0.68,0-1.35-0.11-2-0.32l-0.05-0.07c-2.43-0.69-6.49-2.4-13.24-6.13
			c-3.91-2.13-7.63-4.59-11.13-7.35c-1.75-1.38-3.42-2.86-5-4.44l-0.17-0.17l-0.17-0.17l0,0l-0.17-0.16
			c-0.06-0.06-0.11-0.12-0.17-0.17c-1.57-1.58-3.05-3.25-4.43-5c-2.76-3.49-5.22-7.21-7.35-11.12c-3.73-6.76-5.45-10.81-6.13-13.24
			l-0.08-0.06c-0.21-0.65-0.31-1.32-0.31-2c-0.03-0.24-0.03-0.47,0-0.71c0.31-1.8,1.12-3.47,2.34-4.82l0,0
			c1.68-1.88,3.65-3.48,5.84-4.74l0,0c1.86-1.18,4.3-0.79,5.7,0.91c0,0,3,3.54,4.21,5.27c1.3,1.83,2.51,3.72,3.62,5.67
			c1.28,2.05,0.91,4.72-0.88,6.35l-2.87,2.28C92.37,97.76,91.9,99,92,100.26C92,100.26,96.29,116.33,112.16,120.38z"/>
	</g>
</g>
</svg>
